<?xml version="1.0" standalone="no"?>
<!DOCTYPE svg PUBLIC "-//W3C//DTD SVG 20010904//EN"
 "http://www.w3.org/TR/2001/REC-SVG-20010904/DTD/svg10.dtd">
<svg version="1.0" xmlns="http://www.w3.org/2000/svg"
 width="289.000000pt" height="453.000000pt" viewBox="0 0 289.000000 453.000000"
 preserveAspectRatio="xMidYMid meet">

<g transform="translate(0.000000,453.000000) scale(0.100000,-0.100000)"
fill="#000000" stroke="none">
<path d="M1904 4505 c-22 -11 -78 -80 -171 -208 -77 -106 -278 -383 -448 -617
-499 -687 -876 -1207 -1077 -1484 -104 -142 -191 -269 -194 -282 -10 -40 5
-89 37 -120 l30 -29 217 -6 c119 -4 382 -7 584 -8 202 -1 369 -4 371 -8 3 -5
-42 -156 -99 -338 -58 -181 -140 -442 -184 -580 -43 -137 -108 -344 -144 -458
-36 -115 -66 -219 -66 -231 0 -56 81 -126 146 -126 51 0 89 37 212 207 64 88
479 655 922 1258 443 603 813 1111 823 1128 21 39 22 69 1 113 -31 66 -10 64
-669 64 -327 0 -595 3 -595 7 0 4 38 126 84 272 286 898 416 1315 416 1334 0
29 -33 82 -64 102 -37 24 -95 28 -132 10z"/>
</g>
</svg>
