<?xml version="1.0" standalone="no"?>
<!DOCTYPE svg PUBLIC "-//W3C//DTD SVG 20010904//EN"
 "http://www.w3.org/TR/2001/REC-SVG-20010904/DTD/svg10.dtd">
<svg version="1.0" xmlns="http://www.w3.org/2000/svg"
 width="1105.000000pt" height="326.000000pt" viewBox="0 0 1105.000000 326.000000"
 preserveAspectRatio="xMidYMid meet">

<g transform="translate(0.000000,326.000000) scale(0.100000,-0.100000)"
fill="#000000" stroke="none">
<path d="M6374 3246 c-67 -21 -164 -78 -219 -128 -61 -56 -83 -98 -67 -132 7
-15 126 -89 363 -226 700 -402 849 -493 829 -505 -6 -4 -174 -9 -373 -12 -829
-13 -1750 49 -2277 153 -417 82 -650 201 -650 333 0 29 -1 30 -67 38 -97 12
-558 8 -758 -6 -582 -41 -1338 -133 -1988 -241 -267 -45 -603 -111 -684 -135
-62 -18 -125 -76 -170 -155 -63 -111 -123 -326 -123 -441 0 -81 -19 -149 -76
-268 -30 -62 -54 -115 -54 -117 0 -2 166 -4 369 -4 346 0 370 -1 392 -19 21
-16 22 -22 11 -45 l-12 -26 -399 0 -399 0 -11 -50 c-17 -78 -13 -118 18 -207
72 -207 259 -408 457 -493 163 -70 285 -90 558 -90 194 0 208 1 201 18 -150
357 -117 747 90 1057 317 476 932 636 1436 374 197 -102 374 -278 462 -456
l31 -63 1494 0 c1010 0 1500 -3 1513 -10 21 -12 25 -50 7 -68 -9 -9 -354 -12
-1490 -12 -813 0 -1478 -3 -1478 -7 0 -5 9 -41 20 -81 64 -242 46 -485 -55
-734 -7 -17 99 -18 2140 -18 2041 0 2147 1 2140 18 -5 9 -19 47 -33 84 l-25
68 -1938 0 c-1748 0 -1939 2 -1953 16 -21 20 -20 30 4 54 20 20 33 20 1946 20
1830 0 1926 1 1919 18 -4 9 -9 67 -12 129 -29 563 359 1050 917 1153 95 18
290 16 393 -4 674 -129 1074 -840 833 -1480 -14 -37 -26 -71 -26 -73 0 -3 228
-3 508 0 399 3 528 8 604 20 184 31 270 75 322 168 l31 54 3 298 3 297 -486 0
-485 0 -12 26 c-11 23 -10 29 11 45 22 18 48 19 497 19 l474 0 0 55 c0 47 -4
59 -31 90 -202 229 -1735 686 -2538 756 l-134 12 -111 71 c-505 328 -1300 729
-1684 850 -92 29 -118 31 -178 12z m476 -216 c640 -294 1143 -560 1251 -661
57 -53 53 -54 -311 -57 -324 -2 -333 -2 -347 18 -16 23 -89 74 -223 155 -89
54 -683 399 -852 495 -43 24 -78 47 -78 52 0 31 220 132 270 123 14 -2 145
-58 290 -125z"/>
<path d="M2107 1860 c-308 -56 -573 -260 -700 -539 -101 -224 -106 -505 -12
-739 82 -202 251 -384 450 -484 80 -41 210 -78 316 -90 316 -37 650 108 845
365 56 74 126 215 155 312 30 101 38 322 14 436 -57 282 -242 523 -502 653
-126 63 -229 87 -383 91 -74 2 -157 0 -183 -5z m306 -440 c268 -83 418 -381
326 -647 -70 -205 -263 -343 -479 -343 -252 0 -465 186 -502 438 -35 237 110
470 340 549 89 30 222 32 315 3z"/>
<path d="M8411 1859 c-81 -14 -228 -66 -298 -105 -334 -186 -526 -576 -469
-950 89 -585 670 -940 1229 -750 237 81 437 261 543 491 65 141 79 211 78 395
0 150 -3 173 -27 253 -65 213 -198 397 -371 516 -71 49 -202 109 -291 132 -92
24 -305 34 -394 18z m328 -443 c96 -35 192 -111 250 -198 111 -165 113 -387 7
-552 -242 -375 -808 -283 -921 149 -75 290 135 591 435 624 69 8 171 -3 229
-23z"/>
</g>
</svg>
