<?xml version="1.0" standalone="no"?>
<!DOCTYPE svg PUBLIC "-//W3C//DTD SVG 20010904//EN"
 "http://www.w3.org/TR/2001/REC-SVG-20010904/DTD/svg10.dtd">
<svg version="1.0" xmlns="http://www.w3.org/2000/svg"
 width="1019.000000pt" height="414.000000pt" viewBox="0 0 1019.000000 414.000000"
 preserveAspectRatio="xMidYMid meet">

<g transform="translate(0.000000,414.000000) scale(0.100000,-0.100000)"
fill="#000000" stroke="none">
<path d="M1304 4110 c-208 -103 -600 -590 -794 -985 -85 -173 -106 -251 -114
-420 -7 -151 -32 -269 -79 -364 -25 -52 -57 -90 -144 -175 -145 -142 -164
-180 -171 -348 l-5 -118 200 0 c141 0 202 -3 211 -12 18 -18 14 -56 -7 -68
-12 -6 -98 -10 -210 -10 l-191 0 0 -117 c1 -202 19 -514 35 -598 29 -154 89
-231 196 -254 56 -12 319 -15 319 -3 0 4 -7 39 -14 77 -48 232 -18 478 84 693
153 322 438 544 790 617 101 21 303 24 400 6 210 -40 410 -139 558 -276 l60
-55 1685 0 c1519 0 1687 -2 1701 -16 21 -20 20 -37 -2 -57 -17 -16 -147 -17
-1660 -17 -903 0 -1642 -2 -1642 -4 0 -2 16 -28 36 -57 152 -226 215 -524 169
-795 -9 -49 -18 -97 -21 -106 -5 -17 99 -18 2084 -18 l2089 0 -15 68 c-8 37
-16 73 -18 80 -3 9 -356 12 -1721 12 -945 0 -1728 3 -1741 6 -26 8 -39 48 -22
69 11 13 223 15 1740 15 l1728 0 7 93 c17 239 70 403 190 583 259 389 745 572
1203 453 102 -27 233 -85 324 -145 88 -58 259 -227 313 -309 91 -139 153 -300
175 -454 16 -104 7 -334 -14 -411 -9 -30 -16 -56 -16 -57 0 -2 190 -3 423 -3
463 1 542 8 623 55 85 50 118 134 134 335 11 142 13 474 4 544 l-7 46 -309 0
c-194 0 -317 4 -329 10 -21 12 -25 50 -7 68 9 9 95 12 324 12 l313 0 -25 91
c-92 346 -350 604 -774 774 -256 103 -528 167 -1153 270 -675 112 -649 102
-1172 435 -284 181 -349 221 -495 303 -532 299 -1049 468 -1670 544 -120 14
-328 17 -1825 20 l-1690 4 -61 -31z m1486 -770 l0 -540 -651 0 -652 0 6 38
c14 87 209 427 365 634 106 140 257 312 319 363 l55 45 279 0 279 0 0 -540z
m1900 0 l0 -540 -907 2 -908 3 -3 538 -2 537 910 0 910 0 0 -540z m295 504
c410 -55 804 -177 1210 -375 195 -95 351 -186 707 -412 150 -95 303 -190 341
-211 37 -21 67 -40 67 -42 0 -2 -569 -4 -1265 -4 l-1265 0 0 535 0 535 48 -6
c26 -3 97 -12 157 -20z"/>
<path d="M1467 1860 c-314 -53 -593 -278 -710 -572 -54 -134 -62 -181 -61
-358 0 -150 3 -173 28 -255 90 -296 308 -524 593 -621 498 -169 1027 93 1192
591 77 232 60 480 -49 700 -133 271 -372 454 -668 511 -79 15 -246 17 -325 4z
m303 -440 c82 -24 171 -81 230 -147 254 -282 114 -731 -257 -828 -239 -62
-501 72 -592 304 -84 213 -14 461 169 595 132 97 286 123 450 76z"/>
<path d="M7740 1850 c-347 -74 -616 -330 -712 -678 -18 -63 -22 -106 -22 -232
-1 -184 18 -270 89 -415 225 -456 774 -650 1232 -435 585 274 725 1038 275
1499 -224 229 -551 328 -862 261z m319 -421 c117 -26 261 -138 320 -248 80
-151 82 -338 3 -485 -37 -71 -145 -177 -213 -210 -117 -57 -247 -71 -364 -41
-168 44 -309 182 -359 354 -25 84 -21 221 8 303 88 249 342 386 605 327z"/>
</g>
</svg>
