<?xml version="1.0" standalone="no"?>
<!DOCTYPE svg PUBLIC "-//W3C//DTD SVG 20010904//EN"
 "http://www.w3.org/TR/2001/REC-SVG-20010904/DTD/svg10.dtd">
<svg version="1.0" xmlns="http://www.w3.org/2000/svg"
 width="72.000000pt" height="72.000000pt" viewBox="0 0 72.000000 72.000000"
 preserveAspectRatio="xMidYMid meet">

<g transform="translate(0.000000,72.000000) scale(0.100000,-0.100000)"
fill="#000000" stroke="none">
<path d="M269 707 c-104 -30 -190 -104 -237 -206 -22 -46 -27 -71 -27 -141 0
-76 3 -92 32 -151 39 -79 102 -140 181 -177 82 -38 202 -38 284 0 79 37 142
98 181 177 28 58 32 75 32 151 0 76 -4 93 -32 151 -60 121 -170 196 -300 205
-40 2 -87 -2 -114 -9z m296 -142 c25 -24 25 -26 25 -205 0 -179 0 -181 -25
-205 -24 -25 -26 -25 -205 -25 -244 0 -230 -14 -230 230 0 244 -14 230 230
230 179 0 181 0 205 -25z"/>
<path d="M196 524 c-20 -20 -21 -58 -1 -74 11 -9 15 -33 15 -90 0 -57 -4 -81
-15 -90 -32 -27 -7 -90 35 -90 42 0 67 63 35 90 -8 7 -15 25 -15 41 0 28 2 29
45 29 43 0 45 -1 45 -29 0 -16 -7 -34 -15 -41 -32 -27 -7 -90 35 -90 42 0 67
63 35 90 -8 7 -15 25 -15 41 0 27 1 28 63 31 l62 3 3 47 c2 25 10 52 18 58 31
27 6 90 -36 90 -42 0 -67 -63 -35 -90 8 -7 15 -25 15 -41 0 -28 -2 -29 -45
-29 -43 0 -45 1 -45 29 0 16 7 34 15 41 32 27 7 90 -35 90 -42 0 -67 -63 -35
-90 8 -7 15 -25 15 -41 0 -28 -2 -29 -45 -29 -43 0 -45 1 -45 29 0 16 7 34 15
41 32 27 7 90 -35 90 -10 0 -26 -7 -34 -16z m176 -29 c3 -14 0 -28 -6 -32 -6
-3 -8 -3 -4 1 4 5 3 19 -2 32 -5 13 -6 24 -1 24 5 0 11 -11 13 -25z m-132 -10
c0 -14 -3 -25 -7 -25 -5 0 -8 11 -8 25 0 14 3 25 8 25 4 0 7 -11 7 -25z m270
-4 c0 -6 -4 -12 -8 -15 -5 -3 -9 1 -9 9 0 8 4 15 9 15 4 0 8 -4 8 -9z m-275
-250 c-3 -12 -10 -21 -15 -21 -4 0 -3 11 3 24 14 29 22 27 12 -3z m126 15
c-10 -11 -8 -15 6 -18 10 -2 14 -6 8 -10 -17 -10 -36 7 -29 25 3 9 11 17 16
17 6 0 6 -6 -1 -14z"/>
<path d="M471 233 c1 -21 3 -30 6 -20 2 9 7 17 10 17 3 0 12 -8 20 -17 14 -17
14 -17 9 0 -3 10 -6 27 -6 38 0 12 -7 19 -20 19 -17 0 -20 -6 -19 -37z m29 17
c0 -5 -4 -10 -10 -10 -5 0 -10 5 -10 10 0 6 5 10 10 10 6 0 10 -4 10 -10z"/>
</g>
</svg>
