<svg width="25" height="25" viewBox="0 0 25 25" fill="none" xmlns="http://www.w3.org/2000/svg">
<path d="M21.5386 0C21.1786 0 20.8359 0.163066 20.5479 0.450831L19.8587 1.10981L23.9076 5.15578L24.568 4.46706C25.144 3.89153 25.144 3.03399 24.568 2.45847L22.558 0.449871C22.27 0.162107 21.8976 0 21.5376 0H21.5386ZM19.1983 1.67958L18.1482 2.54959L22.4678 6.86606L23.4277 5.90684L19.1983 1.67862V1.67958ZM17.578 3.23831L8.91002 11.8118C8.86614 11.848 8.82565 11.8881 8.78907 11.9317L8.72956 11.9614C8.62486 12.0813 8.5525 12.2259 8.51933 12.3815L7.34921 16.4879C7.29905 16.6505 7.29421 16.8236 7.33519 16.9887C7.37617 17.1538 7.46142 17.3045 7.58178 17.4248C7.70213 17.5451 7.85303 17.6303 8.01823 17.6712C8.18343 17.7122 8.35668 17.7073 8.51933 17.6572L12.6287 16.4879C12.7651 16.4556 12.8926 16.393 13.0016 16.3049C13.1106 16.2167 13.1983 16.1052 13.2584 15.9786L21.7785 7.55477L20.1582 5.81572V5.90588L19.0179 4.76634H19.1081L17.5789 3.23831H17.578ZM0.780554 3.89729C0.558172 3.93955 0.357892 4.05899 0.215092 4.23451C0.0722929 4.41003 -0.00383751 4.63033 0.000148979 4.8565V24.0408C0.000148979 24.2952 0.101282 24.5392 0.2813 24.7191C0.461317 24.8989 0.705474 25 0.960057 25H20.1582C20.4128 25 20.657 24.8989 20.837 24.7191C21.017 24.5392 21.1181 24.2952 21.1181 24.0408V13.4894C21.1181 13.235 21.017 12.991 20.837 12.8112C20.657 12.6313 20.4128 12.5302 20.1582 12.5302C19.9036 12.5302 19.6595 12.6313 19.4795 12.8112C19.2994 12.991 19.1983 13.235 19.1983 13.4894V23.0816H1.91997V5.81572H11.519C11.7736 5.81572 12.0178 5.71466 12.1978 5.53477C12.3778 5.35488 12.479 5.1109 12.479 4.8565C12.479 4.6021 12.3778 4.35812 12.1978 4.17824C12.0178 3.99835 11.7736 3.89729 11.519 3.89729H0.960057C0.929997 3.89587 0.899886 3.89587 0.869826 3.89729C0.839765 3.89587 0.809655 3.89587 0.779594 3.89729H0.780554ZM10.2001 13.3101L11.52 13.3993L11.6102 14.8381L10.2904 15.2275L9.78065 14.7191L10.2001 13.3091V13.3101Z" fill="white"/>
</svg>
