<svg width="32" height="25" viewBox="0 0 32 25" fill="none" xmlns="http://www.w3.org/2000/svg">
<path d="M28 6.94444V5.55556L24 8.33333L20 5.55556V6.94444L24 9.72222L28 6.94444ZM29.3333 0H2.66667C1.2 0 0 1.25 0 2.77778V22.2222C0 23.75 1.2 25 2.66667 25H29.3333C30.8 25 31.9867 23.75 31.9867 22.2222L32 2.77778C32 1.25 30.8 0 29.3333 0ZM10.6667 4.16667C12.88 4.16667 14.6667 6.02778 14.6667 8.33333C14.6667 10.6389 12.88 12.5 10.6667 12.5C8.45333 12.5 6.66667 10.6389 6.66667 8.33333C6.66667 6.02778 8.45333 4.16667 10.6667 4.16667ZM18.6667 20.8333H2.66667V19.4444C2.66667 16.6667 8 15.1389 10.6667 15.1389C13.3333 15.1389 18.6667 16.6667 18.6667 19.4444V20.8333ZM29.3333 12.5H18.6667V4.16667H29.3333V12.5Z" fill="white"/>
</svg>
