<svg width="27" height="25" viewBox="0 0 27 25" fill="none" xmlns="http://www.w3.org/2000/svg">
<path fill-rule="evenodd" clip-rule="evenodd" d="M26.6144 21.6845C25.7466 21.985 24.0327 22.6078 22.062 19.274C20.0913 15.9437 17.4861 16.7175 17.4861 16.7175C17.3401 16.7427 17.2159 16.7914 17.0866 16.835C14.1457 12.6469 5.87515 3.5253 5.14664 2.7951C4.10086 1.751 2.34503 0.770692 0.876246 2.30998C-0.505252 3.75694 0.203122 5.64538 1.2489 6.69116C1.98413 7.42639 11.1561 15.7389 15.3425 18.6697C15.2735 18.8513 15.2306 19.0418 15.215 19.2354C15.215 25.3557 21.4745 25.0317 22.7687 24.795C25.0768 24.377 27.4823 21.3874 26.6144 21.6845Z" fill="white"/>
<path fill-rule="evenodd" clip-rule="evenodd" d="M9.45928 17.8029L9.07823 19.0652L9.89404 19.881L3.49684 22.6608L2.23788 21.4539L5.12678 15.3656L5.09656 16.5507L6.77182 16.5272L8.20367 15.1087C7.31401 14.3534 6.4277 13.5879 5.58168 12.8477L4.18172 14.2493C4.18172 14.2493 0.300765 23.1795 0.037223 23.9013C-0.172604 24.472 0.550879 25.1955 1.05111 24.9505C1.85684 24.5526 10.6863 20.7204 10.6863 20.7204L12.647 18.753C11.8764 18.1522 11.1147 17.54 10.3624 16.9166L9.45928 17.8029Z" fill="white"/>
<path fill-rule="evenodd" clip-rule="evenodd" d="M20.4274 3.01481L22.5408 5.08958L15.4402 11.9836C16.0748 12.7558 16.6723 13.4977 17.2045 14.1843L24.357 7.00823C25.1997 6.16557 25.2467 4.95025 24.3436 4.04884L20.978 0.708399C20.0732 -0.193017 18.6565 -0.240018 17.8155 0.600967L11.3008 7.12741C12.0494 7.98351 12.8266 8.88157 13.5904 9.7813L20.4274 3.01481Z" fill="white"/>
</svg>
