<svg width="34" height="25" viewBox="0 0 34 25" fill="none" xmlns="http://www.w3.org/2000/svg">
<path d="M26.2727 22.6562C27.5555 22.6562 28.5909 21.6094 28.5909 20.3125C28.5909 19.0156 27.5555 17.9688 26.2727 17.9688C24.99 17.9688 23.9545 19.0156 23.9545 20.3125C23.9545 21.6094 24.99 22.6562 26.2727 22.6562ZM28.5909 8.59375H24.7273V12.5H31.62L28.5909 8.59375ZM7.72727 22.6562C9.01 22.6562 10.0455 21.6094 10.0455 20.3125C10.0455 19.0156 9.01 17.9688 7.72727 17.9688C6.44455 17.9688 5.40909 19.0156 5.40909 20.3125C5.40909 21.6094 6.44455 22.6562 7.72727 22.6562ZM29.3636 6.25L34 12.5V20.3125H30.9091C30.9091 22.9062 28.8382 25 26.2727 25C23.7073 25 21.6364 22.9062 21.6364 20.3125H12.3636C12.3636 22.9062 10.2927 25 7.72727 25C5.16182 25 3.09091 22.9062 3.09091 20.3125H0V3.125C0 1.39062 1.37545 0 3.09091 0H24.7273V6.25H29.3636ZM3.09091 3.125V17.1875H4.26545C5.11545 16.2344 6.35182 15.625 7.72727 15.625C9.10273 15.625 10.3391 16.2344 11.1891 17.1875H21.6364V3.125H3.09091ZM13.9091 4.6875L19.3182 10.1562L13.9091 15.625V11.7188H6.18182V8.59375H13.9091V4.6875Z" fill="white"/>
</svg>
