<svg width="25" height="25" viewBox="0 0 25 25" fill="none" xmlns="http://www.w3.org/2000/svg">
<path d="M19.5312 25C18.0176 25 16.7277 24.467 15.6616 23.4009C14.5955 22.3348 14.0625 21.0449 14.0625 19.5312C14.0625 18.0176 14.5955 16.7277 15.6616 15.6616C16.7277 14.5955 18.0176 14.0625 19.5312 14.0625C21.0449 14.0625 22.3348 14.5955 23.4009 15.6616C24.467 16.7277 25 18.0176 25 19.5312C25 21.0449 24.467 22.3348 23.4009 23.4009C22.3348 24.467 21.0449 25 19.5312 25ZM22.6562 18.75H20.3125V16.4062C20.3125 16.1947 20.2352 16.0116 20.0806 15.8569C19.9259 15.7023 19.7428 15.625 19.5312 15.625C19.3197 15.625 19.1366 15.7023 18.9819 15.8569C18.8273 16.0116 18.75 16.1947 18.75 16.4062V19.5312C18.75 19.7266 18.811 19.8934 18.9331 20.0317C19.0552 20.1701 19.2057 20.2555 19.3848 20.2881C19.4173 20.3044 19.4661 20.3125 19.5312 20.3125H22.6562C22.8678 20.3125 23.0509 20.2352 23.2056 20.0806C23.3602 19.9259 23.4375 19.7428 23.4375 19.5312C23.4375 19.3197 23.3602 19.1366 23.2056 18.9819C23.0509 18.8273 22.8678 18.75 22.6562 18.75ZM11.7188 20.3125H7.03125C6.81966 20.3125 6.63656 20.2352 6.48193 20.0806C6.32731 19.9259 6.25 19.7428 6.25 19.5312C6.25 19.3197 6.32731 19.1366 6.48193 18.9819C6.63656 18.8273 6.81966 18.75 7.03125 18.75H11.7188C11.9303 18.75 12.1134 18.8273 12.2681 18.9819C12.4227 19.1366 12.5 19.3197 12.5 19.5312C12.5 19.7428 12.4227 19.9259 12.2681 20.0806C12.1134 20.2352 11.9303 20.3125 11.7188 20.3125ZM7.03125 15.625H11.7188C11.9303 15.625 12.1134 15.7023 12.2681 15.8569C12.4227 16.0116 12.5 16.1947 12.5 16.4062C12.5 16.6178 12.4227 16.8009 12.2681 16.9556C12.1134 17.1102 11.9303 17.1875 11.7188 17.1875H7.03125C6.81966 17.1875 6.63656 17.1102 6.48193 16.9556C6.32731 16.8009 6.25 16.6178 6.25 16.4062C6.25 16.1947 6.32731 16.0116 6.48193 15.8569C6.63656 15.7023 6.81966 15.625 7.03125 15.625ZM14.8438 14.0625H7.03125C6.81966 14.0625 6.63656 13.9852 6.48193 13.8306C6.32731 13.6759 6.25 13.4928 6.25 13.2812C6.25 13.0697 6.32731 12.8866 6.48193 12.7319C6.63656 12.5773 6.81966 12.5 7.03125 12.5H14.8438C15.0553 12.5 15.2384 12.5773 15.3931 12.7319C15.5477 12.8866 15.625 13.0697 15.625 13.2812C15.625 13.4928 15.5477 13.6759 15.3931 13.8306C15.2384 13.9852 15.0553 14.0625 14.8438 14.0625ZM17.9688 10.9375H7.03125C6.81966 10.9375 6.63656 10.8602 6.48193 10.7056C6.32731 10.5509 6.25 10.3678 6.25 10.1562C6.25 9.94466 6.32731 9.76156 6.48193 9.60693C6.63656 9.45231 6.81966 9.375 7.03125 9.375H17.9688C18.1803 9.375 18.3634 9.45231 18.5181 9.60693C18.6727 9.76156 18.75 9.94466 18.75 10.1562C18.75 10.3678 18.6727 10.5509 18.5181 10.7056C18.3634 10.8602 18.1803 10.9375 17.9688 10.9375ZM17.9688 4.6875H7.03125C6.81966 4.6875 6.63656 4.61019 6.48193 4.45557C6.32731 4.30094 6.25 4.11784 6.25 3.90625C6.25 3.69466 6.32731 3.51156 6.48193 3.35693C6.63656 3.20231 6.81966 3.125 7.03125 3.125H17.9688C18.1803 3.125 18.3634 3.20231 18.5181 3.35693C18.6727 3.51156 18.75 3.69466 18.75 3.90625C18.75 4.11784 18.6727 4.30094 18.5181 4.45557C18.3634 4.61019 18.1803 4.6875 17.9688 4.6875ZM17.9688 7.8125H7.03125C6.81966 7.8125 6.63656 7.73519 6.48193 7.58057C6.32731 7.42594 6.25 7.24284 6.25 7.03125C6.25 6.81966 6.32731 6.63656 6.48193 6.48193C6.63656 6.32731 6.81966 6.25 7.03125 6.25H17.9688C18.1803 6.25 18.3634 6.32731 18.5181 6.48193C18.6727 6.63656 18.75 6.81966 18.75 7.03125C18.75 7.24284 18.6727 7.42594 18.5181 7.58057C18.3634 7.73519 18.1803 7.8125 17.9688 7.8125ZM20.3125 2.34375C20.3125 2.13216 20.2352 1.94906 20.0806 1.79443C19.9259 1.63981 19.7428 1.5625 19.5312 1.5625H3.90625C3.69466 1.5625 3.51156 1.63981 3.35693 1.79443C3.20231 1.94906 3.125 2.13216 3.125 2.34375V3.125C3.56445 3.125 3.93473 3.27555 4.23584 3.57666C4.53695 3.87777 4.6875 4.24805 4.6875 4.6875C4.6875 5.12695 4.53695 5.49723 4.23584 5.79834C3.93473 6.09945 3.56445 6.25 3.125 6.25V7.8125C3.56445 7.8125 3.93473 7.96305 4.23584 8.26416C4.53695 8.56527 4.6875 8.93555 4.6875 9.375C4.6875 9.81445 4.53695 10.1847 4.23584 10.4858C3.93473 10.7869 3.56445 10.9375 3.125 10.9375V12.5C3.56445 12.5 3.93473 12.6506 4.23584 12.9517C4.53695 13.2528 4.6875 13.619 4.6875 14.0503C4.6875 14.4816 4.53695 14.8519 4.23584 15.1611C3.93473 15.4704 3.56445 15.625 3.125 15.625V17.1875C3.56445 17.1875 3.93473 17.3381 4.23584 17.6392C4.53695 17.9403 4.6875 18.3065 4.6875 18.7378C4.6875 19.1691 4.53695 19.5394 4.23584 19.8486C3.93473 20.1579 3.56445 20.3125 3.125 20.3125V21.0938C3.125 21.3053 3.20231 21.4884 3.35693 21.6431C3.51156 21.7977 3.69466 21.875 3.90625 21.875H14.0625V23.4375H3.125C2.70182 23.4375 2.33561 23.2829 2.02637 22.9736C1.71712 22.6644 1.5625 22.2982 1.5625 21.875V20.3125C1.13932 20.3125 0.773112 20.1579 0.463867 19.8486C0.154622 19.5394 0 19.1691 0 18.7378C0 18.3065 0.154622 17.9403 0.463867 17.6392C0.773112 17.3381 1.13932 17.1875 1.5625 17.1875V15.625C1.13932 15.625 0.773112 15.4704 0.463867 15.1611C0.154622 14.8519 0 14.4816 0 14.0503C0 13.619 0.154622 13.2528 0.463867 12.9517C0.773112 12.6506 1.13932 12.5 1.5625 12.5V10.9375C1.13932 10.9375 0.773112 10.7869 0.463867 10.4858C0.154622 10.1847 0 9.81445 0 9.375C0 8.93555 0.154622 8.56527 0.463867 8.26416C0.773112 7.96305 1.13932 7.8125 1.5625 7.8125V6.25C1.13932 6.25 0.773112 6.09945 0.463867 5.79834C0.154622 5.49723 0 5.12695 0 4.6875C0 4.24805 0.154622 3.87777 0.463867 3.57666C0.773112 3.27555 1.13932 3.125 1.5625 3.125V1.5625C1.5625 1.12305 1.71712 0.752767 2.02637 0.45166C2.33561 0.150553 2.70182 0 3.125 0H20.3125C20.7357 0 21.1019 0.150553 21.4111 0.45166C21.7204 0.752767 21.875 1.12305 21.875 1.5625V12.5H20.3125V2.34375Z" fill="white"/>
</svg>
