<?xml version="1.0" standalone="no"?>
<!DOCTYPE svg PUBLIC "-//W3C//DTD SVG 20010904//EN"
 "http://www.w3.org/TR/2001/REC-SVG-20010904/DTD/svg10.dtd">
<svg version="1.0" xmlns="http://www.w3.org/2000/svg"
 width="1114.000000pt" height="379.000000pt" viewBox="0 0 1114.000000 379.000000"
 preserveAspectRatio="xMidYMid meet">

<g transform="translate(0.000000,379.000000) scale(0.100000,-0.100000)"
fill="#000000" stroke="none">
<path d="M5305 3779 c-1105 -20 -1719 -84 -2129 -220 -355 -119 -580 -279
-960 -686 l-168 -180 -142 -7 c-517 -24 -1244 -173 -1521 -314 -33 -16 -68
-39 -78 -49 -18 -21 -46 -133 -71 -293 -13 -83 -46 -379 -46 -416 0 -12 62
-14 351 -14 222 0 357 -4 370 -10 22 -12 25 -52 6 -68 -9 -8 -151 -12 -441
-14 l-428 -3 -25 -29 c-24 -28 -24 -32 -21 -173 4 -191 -5 -183 203 -183 139
0 157 -2 206 -24 89 -39 302 -105 473 -146 136 -33 219 -50 467 -94 l26 -5 6
127 c21 490 354 905 825 1029 139 36 357 43 492 15 251 -53 480 -186 627 -364
l48 -58 1508 0 c1021 0 1515 -3 1528 -10 21 -12 25 -50 7 -68 -9 -9 -355 -12
-1496 -12 -816 0 -1482 -3 -1480 -7 2 -5 17 -35 34 -68 80 -153 117 -315 118
-508 l0 -127 2048 0 2048 0 0 90 0 90 -1850 0 c-1816 0 -1849 0 -1860 19 -13
26 -3 50 27 62 15 5 761 9 1859 9 l1834 0 0 24 c0 73 51 232 114 353 162 312
472 533 815 583 113 17 333 7 431 -19 321 -84 579 -290 725 -581 82 -162 115
-309 115 -507 l0 -125 123 7 c150 8 283 28 405 60 89 24 108 25 372 25 153 0
286 3 295 6 35 14 45 58 45 194 l0 132 -29 29 c-18 18 -40 29 -56 29 -22 0
-26 3 -19 18 15 34 52 148 59 180 l7 32 -339 0 c-250 0 -342 3 -351 12 -18 18
-14 56 7 68 13 6 143 10 356 10 l337 0 -7 63 c-36 311 -357 551 -962 717 -471
129 -1043 204 -1758 231 l-310 12 -135 131 c-395 384 -999 832 -1355 1003
l-69 33 -411 -2 c-225 -1 -585 -5 -800 -9z m1045 -704 l0 -455 -1105 0 -1105
0 0 425 0 425 23 4 c38 9 338 25 647 36 418 15 447 16 1023 18 l517 2 0 -455z
m224 399 c317 -177 803 -539 1121 -836 19 -17 2 -18 -618 -18 l-637 0 0 455
c0 418 1 455 17 455 9 0 62 -25 117 -56z m-2514 -434 l0 -420 -209 0 c-243 0
-334 13 -431 62 -113 58 -152 148 -116 271 35 122 187 296 339 391 120 75 238
111 370 115 l47 1 0 -420z"/>
<path d="M2318 1854 c-196 -35 -366 -130 -514 -286 -137 -146 -219 -325 -244
-532 -27 -230 43 -481 185 -665 53 -69 154 -166 218 -210 75 -51 206 -109 298
-131 521 -126 1033 197 1141 720 26 123 20 316 -12 430 -85 300 -308 539 -595
637 -151 51 -324 65 -477 37z m303 -430 c226 -66 371 -258 371 -489 0 -448
-537 -673 -858 -360 -204 199 -204 521 0 720 104 101 206 143 352 144 46 1
103 -6 135 -15z"/>
<path d="M8633 1855 c-331 -60 -606 -291 -717 -603 -121 -340 -38 -716 213
-971 187 -190 464 -296 720 -277 480 35 848 402 878 877 37 597 -506 1081
-1094 974z m298 -431 c90 -27 150 -63 220 -133 104 -103 149 -212 149 -357 0
-280 -224 -504 -505 -504 -281 0 -505 224 -505 504 0 140 45 251 141 352 100
103 215 153 360 153 51 1 107 -5 140 -15z"/>
</g>
</svg>
