<?xml version="1.0" standalone="no"?>
<!DOCTYPE svg PUBLIC "-//W3C//DTD SVG 20010904//EN"
 "http://www.w3.org/TR/2001/REC-SVG-20010904/DTD/svg10.dtd">
<svg version="1.0" xmlns="http://www.w3.org/2000/svg"
 width="1115.000000pt" height="460.000000pt" viewBox="0 0 1115.000000 460.000000"
 preserveAspectRatio="xMidYMid meet">

<g transform="translate(0.000000,460.000000) scale(0.100000,-0.100000)"
fill="#000000" stroke="none">
<path d="M1201 4589 c-201 -18 -340 -71 -446 -171 -201 -187 -331 -564 -440
-1273 -37 -245 -48 -281 -122 -403 -124 -203 -162 -307 -182 -485 -12 -106
-15 -307 -5 -356 l6 -31 456 -2 c421 -3 456 -4 466 -20 8 -13 8 -23 0 -35 -10
-17 -45 -18 -464 -21 l-453 -2 7 -76 c7 -94 49 -285 83 -379 36 -100 105 -229
165 -309 102 -135 270 -242 448 -286 91 -22 384 -39 407 -23 9 7 9 26 1 83 -5
41 -8 127 -5 190 20 406 258 766 622 941 322 156 657 153 982 -6 l112 -55
1919 0 c1711 0 1921 -2 1932 -15 10 -12 10 -21 2 -40 l-12 -25 -1866 0 -1867
0 77 -80 c138 -145 232 -313 283 -508 20 -78 25 -124 26 -232 1 -74 -1 -161
-6 -192 l-7 -58 2556 0 2556 0 -6 40 c-3 22 -9 58 -12 80 l-6 40 -2315 0
c-1480 0 -2321 4 -2332 10 -25 13 -33 37 -21 61 11 19 50 19 2339 19 l2329 0
12 97 c65 520 468 916 991 973 251 28 518 -41 743 -192 127 -85 284 -266 358
-413 78 -153 123 -358 116 -529 l-3 -104 49 19 c85 34 139 71 217 148 61 61
85 94 122 171 74 151 113 323 131 573 l6 77 -245 0 -245 0 -12 25 c-8 19 -8
28 2 40 11 13 50 15 258 15 l245 0 -6 144 c-37 805 -411 1100 -1522 1201 -316
28 -528 36 -1115 42 l-585 5 -230 232 c-268 269 -423 412 -590 545 -398 318
-752 468 -1267 538 -112 15 -323 17 -2333 19 -1215 1 -2252 -2 -2304 -7z m989
-789 l0 -540 -641 0 -641 0 7 43 c17 107 80 381 110 483 98 323 192 465 338
513 100 34 163 38 505 40 l322 1 0 -540z m3048 3 l-3 -538 -1480 0 -1480 0 -3
538 -2 537 1485 0 1485 0 -2 -537z m487 527 c526 -49 888 -206 1328 -578 118
-99 434 -399 475 -451 l33 -41 -1121 0 -1120 0 0 540 0 540 148 0 c81 0 197
-5 257 -10z"/>
<path d="M2050 1855 c-226 -46 -439 -182 -577 -368 -262 -357 -230 -869 75
-1190 319 -335 825 -391 1207 -134 180 122 325 326 379 533 136 526 -192 1048
-727 1158 -91 19 -266 19 -357 1z m330 -435 c233 -68 387 -310 352 -552 -37
-252 -250 -438 -502 -438 -247 0 -461 182 -502 427 -32 192 60 398 225 504
129 84 273 103 427 59z"/>
<path d="M9368 1860 c-303 -51 -573 -259 -700 -537 -100 -221 -107 -504 -18
-729 157 -394 570 -640 984 -585 510 68 874 525 816 1024 -49 419 -349 744
-758 823 -78 15 -246 17 -324 4z m302 -440 c235 -68 393 -320 352 -563 -68
-405 -565 -568 -857 -281 -302 297 -125 815 295 863 73 9 131 3 210 -19z"/>
</g>
</svg>
