<?xml version="1.0" standalone="no"?>
<!DOCTYPE svg PUBLIC "-//W3C//DTD SVG 20010904//EN"
 "http://www.w3.org/TR/2001/REC-SVG-20010904/DTD/svg10.dtd">
<svg version="1.0" xmlns="http://www.w3.org/2000/svg"
 width="1099.000000pt" height="355.000000pt" viewBox="0 0 1099.000000 355.000000"
 preserveAspectRatio="xMidYMid meet">

<g transform="translate(0.000000,355.000000) scale(0.100000,-0.100000)"
fill="#000000" stroke="none">
<path d="M3850 3539 c-995 -53 -1950 -318 -2578 -717 l-109 -69 -354 -6 c-392
-7 -512 -19 -611 -64 -124 -56 -169 -146 -189 -381 -12 -136 -8 -480 5 -501 5
-8 181 -11 625 -11 466 0 620 -3 629 -12 18 -18 14 -56 -7 -68 -13 -6 -225
-10 -620 -10 -533 0 -601 -2 -601 -15 0 -31 43 -142 85 -222 191 -361 591
-579 1208 -658 65 -8 137 -15 160 -15 l42 0 0 158 c1 128 5 173 23 245 171
683 900 1043 1534 758 72 -32 218 -122 238 -146 11 -13 208 -15 1511 -15
l1499 0 12 -25 c9 -21 8 -28 -7 -45 -18 -20 -30 -20 -1457 -20 l-1438 0 67
-87 c158 -208 246 -492 228 -740 l-7 -93 2056 0 2056 0 0 24 c0 12 -3 51 -6
85 l-7 61 -1871 2 -1871 3 0 35 0 35 1875 5 c1865 5 1875 5 1878 25 34 224
102 395 221 552 445 590 1323 587 1773 -7 70 -92 154 -266 185 -385 23 -88 26
-120 27 -269 l1 -169 165 6 c268 10 551 61 668 121 27 14 62 40 77 58 l27 32
-5 311 c-3 170 -9 328 -14 350 l-8 40 -343 5 c-361 5 -361 5 -362 51 0 37 15
39 353 39 l328 0 -38 72 c-208 396 -944 575 -3136 763 l-297 26 -101 65 c-919
597 -2186 893 -3519 823z m730 -169 c281 -16 671 -59 820 -91 l50 -11 0 -379
0 -379 -47 0 c-27 0 -448 7 -938 15 -490 8 -905 15 -922 15 l-33 0 0 399 0
399 28 6 c26 5 276 24 397 29 153 8 487 6 645 -3z m-1160 -436 l0 -397 -222 7
c-123 3 -449 9 -725 12 l-503 7 -109 111 c-60 61 -123 128 -140 148 l-32 37
29 15 c17 9 99 44 184 80 377 156 844 281 1341 356 67 10 134 19 150 19 l27 1
0 -396z m2400 255 c232 -57 550 -160 750 -244 313 -131 736 -367 757 -421 8
-20 1 -25 -47 -34 -31 -6 -876 4 -1717 20 l-23 0 0 371 0 371 38 -6 c20 -4
129 -29 242 -57z"/>
<path d="M2461 1860 c-531 -111 -856 -623 -731 -1149 24 -101 84 -230 144
-314 51 -72 170 -189 239 -236 76 -51 206 -109 303 -133 122 -31 332 -30 445
0 337 91 585 333 679 663 28 96 38 289 20 396 -57 355 -321 652 -672 754 -57
17 -106 22 -228 25 -85 1 -175 -1 -199 -6z m259 -421 c267 -43 457 -301 420
-571 -27 -195 -177 -367 -369 -420 -320 -88 -641 158 -641 492 0 140 54 264
160 364 77 72 147 110 241 130 80 18 107 19 189 5z"/>
<path d="M8760 1855 c-350 -78 -622 -340 -716 -691 -29 -107 -27 -361 4 -468
84 -290 286 -518 553 -625 127 -51 200 -64 349 -65 160 0 264 22 397 84 114
53 194 112 289 212 331 351 335 906 9 1266 -109 119 -259 214 -425 268 -75 24
-104 27 -240 30 -110 3 -174 -1 -220 -11z m295 -420 c104 -22 171 -59 251
-139 77 -77 114 -139 138 -233 97 -372 -255 -717 -625 -615 -342 95 -484 505
-275 790 74 101 182 171 299 197 82 18 128 18 212 0z"/>
</g>
</svg>
