<svg width="20" height="18" viewBox="0 0 20 18" fill="none" xmlns="http://www.w3.org/2000/svg">
<path d="M10 0L11.7049 1.78127L14.0674 0.77809L14.8198 3.02945L17.4314 2.97782L17.1014 5.31L19.5106 6.21885L18.1551 8.22858L19.9452 9.94076L17.7987 11.2805L18.6603 13.5L16.0938 13.9382L15.8779 16.2812L13.3352 15.742L12.0791 17.8033L10 16.38L7.92088 17.8033L6.66476 15.742L4.12215 16.2812L3.90621 13.9382L1.33975 13.5L2.20134 11.2805L0.054781 9.94076L1.84492 8.22858L0.489435 6.21885L2.89859 5.31L2.56855 2.97782L5.18016 3.02945L5.93263 0.77809L8.29512 1.78127L10 0Z" fill="#E6C101"/>
<path d="M6.90407 6.701V11H6.61307C6.56707 11 6.52807 10.992 6.49607 10.976C6.46607 10.96 6.43607 10.933 6.40607 10.895L3.91907 7.655C3.92307 7.705 3.92607 7.754 3.92807 7.802C3.93007 7.85 3.93107 7.895 3.93107 7.937V11H3.42107V6.701H3.72107C3.74707 6.701 3.76907 6.703 3.78707 6.707C3.80507 6.709 3.82107 6.714 3.83507 6.722C3.84907 6.728 3.86307 6.738 3.87707 6.752C3.89107 6.764 3.90607 6.78 3.92207 6.8L6.40907 10.037C6.40507 9.985 6.40107 9.935 6.39707 9.887C6.39507 9.837 6.39407 9.79 6.39407 9.746V6.701H6.90407ZM10.6551 10.526L10.6521 11H8.0031V6.701H10.6521V7.175H8.5851V8.603H10.2591V9.059H8.5851V10.526H10.6551ZM17.037 6.701L15.696 11H15.174L14.085 7.721C14.075 7.689 14.065 7.655 14.055 7.619C14.047 7.583 14.038 7.545 14.028 7.505C14.018 7.545 14.008 7.583 13.998 7.619C13.988 7.655 13.978 7.689 13.968 7.721L12.873 11H12.351L11.01 6.701H11.493C11.545 6.701 11.588 6.714 11.622 6.74C11.658 6.766 11.681 6.799 11.691 6.839L12.579 9.827C12.593 9.881 12.606 9.939 12.618 10.001C12.632 10.063 12.645 10.129 12.657 10.199C12.671 10.129 12.685 10.063 12.699 10.001C12.715 9.937 12.732 9.879 12.75 9.827L13.761 6.839C13.773 6.805 13.796 6.774 13.83 6.746C13.866 6.716 13.909 6.701 13.959 6.701H14.127C14.179 6.701 14.221 6.714 14.253 6.74C14.285 6.766 14.309 6.799 14.325 6.839L15.333 9.827C15.351 9.879 15.367 9.935 15.381 9.995C15.397 10.055 15.412 10.118 15.426 10.184C15.436 10.118 15.447 10.055 15.459 9.995C15.471 9.935 15.484 9.879 15.498 9.827L16.389 6.839C16.399 6.803 16.421 6.771 16.455 6.743C16.491 6.715 16.534 6.701 16.584 6.701H17.037Z" fill="white"/>
</svg>
