<svg width="20" height="20" viewBox="0 0 20 20" fill="none" xmlns="http://www.w3.org/2000/svg">
<path d="M13.2479 12.2383C13.103 12.1979 12.1869 11.8458 12.7593 10.3618H12.7511C14.2434 9.05126 15.3838 6.94236 15.3838 4.8661C15.3838 1.6736 12.8943 0 10.0009 0C7.10574 0 4.6299 1.67282 4.6299 4.8661C4.6299 6.95091 5.7639 9.06837 7.26527 10.3758C7.8505 11.6849 6.80401 12.1707 6.58523 12.2391C3.55515 13.1735 0 14.8766 0 16.558V17.1884C0 19.4792 5.20875 20 10.0292 20C14.8569 20 20 19.4792 20 17.1884V16.558C20 14.8261 16.4275 13.1361 13.2479 12.2383Z" fill="#813434" fill-opacity="0.5"/>
</svg>
