<svg width="20" height="20" viewBox="0 0 20 20" fill="none" xmlns="http://www.w3.org/2000/svg">
<path d="M19.9887 15.7837C19.941 15.4887 19.7561 15.2367 19.4792 15.0869L15.3835 12.6731L15.3498 12.6542C15.1781 12.5682 14.9884 12.5242 14.7964 12.5256C14.4532 12.5256 14.1255 12.6556 13.8981 12.8837L12.6892 14.0935C12.6375 14.1426 12.4689 14.2138 12.4178 14.2164C12.4038 14.2152 11.0112 14.1149 8.4475 11.5502C5.88835 8.99087 5.77978 7.59361 5.77892 7.59361C5.78035 7.52216 5.85064 7.35411 5.90064 7.3021L6.9315 6.27123C7.29464 5.90713 7.4035 5.30352 7.18807 4.83596L4.91149 0.551015C4.74606 0.210346 4.42463 0 4.06806 0C3.81577 0 3.57234 0.104602 3.38206 0.294656L0.57205 3.09918C0.30262 3.36725 0.0706192 3.83596 0.0200476 4.21321C-0.0045239 4.39355 -0.503097 8.69821 5.39692 14.6008C10.4058 19.6105 14.3115 19.9997 15.3901 19.9997C15.5214 20.0014 15.6528 19.9947 15.7832 19.9795C16.1592 19.9292 16.6272 19.6977 16.895 19.4293L19.7027 16.6211C19.9318 16.3907 20.0364 16.0863 19.9887 15.7837Z" fill="#813434" fill-opacity="0.5"/>
</svg>
