<svg width="49" height="50" viewBox="0 0 49 50" fill="none" xmlns="http://www.w3.org/2000/svg">
<path d="M28.1396 19.5479L28.0742 19.0522L27.7243 19.0983L27.6507 19.4435L28.1396 19.5479ZM30.8027 19.1963L31.2919 19.3L31.4386 18.608L30.7373 18.7006L30.8027 19.1963ZM29.5283 25.208L29.0392 25.1043L28.9013 25.7546L29.5643 25.7067L29.5283 25.208ZM31.1543 24.417L30.8123 24.0522L30.8112 24.0533L31.1543 24.417ZM32.2705 22.7471L31.8092 22.5542L31.8077 22.5579L32.2705 22.7471ZM32.1562 19.0469L32.5531 18.7428L32.5481 18.7362L32.5428 18.7297L32.1562 19.0469ZM31.4443 18.5195L31.2395 18.9757L31.2474 18.9791L31.4443 18.5195ZM28.4824 18.625L28.32 18.1521L28.3185 18.1526L28.4824 18.625ZM26.0918 20.8662L25.6255 20.6857L25.6238 20.6901L26.0918 20.8662ZM25.9072 23.5996L26.3851 23.4526L26.3811 23.4395L26.3764 23.4268L25.9072 23.5996ZM25.9951 23.8018L26.4293 23.5536L26.4239 23.5445L25.9951 23.8018ZM26.0303 23.9248V24.4248H26.5303V23.9248H26.0303ZM24.6064 23.5381L24.9331 23.1595L24.9285 23.1556L24.6064 23.5381ZM24.3604 21.0156L24.817 21.2193L24.8181 21.2168L24.3604 21.0156ZM25.0811 19.8994L25.4585 20.2274L25.4598 20.2259L25.0811 19.8994ZM26.127 18.9502L26.4203 19.3551L26.4214 19.3543L26.127 18.9502ZM27.4541 18.1768L27.2478 17.7213L27.2464 17.722L27.4541 18.1768ZM33.6592 18.5811L34.0032 18.2182L34.0014 18.2165L33.6592 18.5811ZM34.415 19.6973L33.949 19.8785L33.9512 19.8841L34.415 19.6973ZM34.3096 22.7734L33.8483 22.5805L33.8466 22.5845L34.3096 22.7734ZM33.29 24.3115L32.9342 23.9603L32.9321 23.9624L33.29 24.3115ZM31.6113 25.4541L31.8078 25.9139L31.8098 25.913L31.6113 25.4541ZM29.3789 25.8672V25.3672H28.9746L28.89 25.7625L29.3789 25.8672ZM28.2803 31V31.5H28.6846L28.7692 31.1047L28.2803 31ZM25.6963 31L25.2073 30.8957L25.0784 31.5H25.6963V31ZM28.2051 20.0436L30.8682 19.692L30.7373 18.7006L28.0742 19.0522L28.2051 20.0436ZM30.3136 19.0926L29.0392 25.1043L30.0175 25.3117L31.2919 19.3L30.3136 19.0926ZM29.5643 25.7067C30.2733 25.6555 30.919 25.3263 31.4974 24.7807L30.8112 24.0533C30.3584 24.4804 29.92 24.6784 29.4923 24.7093L29.5643 25.7067ZM31.4963 24.7818C32.024 24.287 32.4344 23.6677 32.7333 22.9362L31.8077 22.5579C31.5559 23.174 31.2221 23.6681 30.8123 24.0522L31.4963 24.7818ZM32.7318 22.94C33.0257 22.2372 33.1748 21.5155 33.1748 20.7783H32.1748C32.1748 21.377 32.0544 21.9679 31.8092 22.5542L32.7318 22.94ZM33.1748 20.7783C33.1748 19.9919 32.9803 19.3002 32.5531 18.7428L31.7594 19.351C32.0236 19.6959 32.1748 20.1585 32.1748 20.7783H33.1748ZM32.5428 18.7297C32.3015 18.4357 31.9978 18.2127 31.6413 18.06L31.2474 18.9791C31.4651 19.0724 31.636 19.201 31.7697 19.364L32.5428 18.7297ZM31.6491 18.0634C31.2856 17.9002 30.8793 17.8262 30.4424 17.8262V18.8262C30.7672 18.8262 31.0289 18.8811 31.2395 18.9757L31.6491 18.0634ZM30.4424 17.8262C29.6705 17.8262 28.961 17.932 28.32 18.1521L28.6448 19.0979C29.164 18.9196 29.7611 18.8262 30.4424 18.8262V17.8262ZM28.3185 18.1526C27.6856 18.3722 27.1347 18.6931 26.6746 19.1197L27.3547 19.8529C27.7032 19.5296 28.1308 19.2762 28.6463 19.0974L28.3185 18.1526ZM26.6746 19.1197C26.2114 19.5494 25.8622 20.0743 25.6255 20.6857L26.5581 21.0467C26.7433 20.5683 27.0093 20.1732 27.3547 19.8529L26.6746 19.1197ZM25.6238 20.6901C25.3943 21.2999 25.2842 21.9732 25.2842 22.7031H26.2842C26.2842 22.0737 26.3791 21.5224 26.5598 21.0423L25.6238 20.6901ZM25.2842 22.7031C25.2842 23.1069 25.3273 23.4719 25.4381 23.7725L26.3764 23.4268C26.3231 23.2821 26.2842 23.0493 26.2842 22.7031H25.2842ZM25.4293 23.7467C25.4627 23.8552 25.5073 23.9606 25.5664 24.059L26.4239 23.5445C26.4126 23.5257 26.3986 23.4964 26.3851 23.4526L25.4293 23.7467ZM25.561 24.0498C25.5479 24.0269 25.5303 23.9833 25.5303 23.9248H26.5303C26.5303 23.7843 26.4892 23.6586 26.4292 23.5537L25.561 24.0498ZM26.0303 23.4248C25.4275 23.4248 25.0983 23.302 24.9331 23.1595L24.2798 23.9167C24.7123 24.2898 25.3323 24.4248 26.0303 24.4248V23.4248ZM24.9285 23.1556C24.7498 23.0052 24.6055 22.7217 24.6055 22.1758H23.6055C23.6055 22.8838 23.7951 23.5085 24.2844 23.9205L24.9285 23.1556ZM24.6055 22.1758C24.6055 21.8577 24.6738 21.5402 24.817 21.2193L23.9037 20.8119C23.707 21.2528 23.6055 21.7087 23.6055 22.1758H24.6055ZM24.8181 21.2168C24.9655 20.8813 25.177 20.5513 25.4585 20.2274L24.7036 19.5715C24.364 19.9624 24.095 20.3765 23.9026 20.8145L24.8181 21.2168ZM25.4598 20.2259C25.7248 19.9185 26.044 19.6278 26.4203 19.3551L25.8336 18.5453C25.4014 18.8585 25.0233 19.2007 24.7023 19.5729L25.4598 20.2259ZM26.4214 19.3543C26.8037 19.0758 27.2169 18.8348 27.6618 18.6316L27.2464 17.722C26.7421 17.9523 26.2706 18.2269 25.8325 18.5461L26.4214 19.3543ZM27.6604 18.6322C28.5989 18.2071 29.5191 18 30.4248 18V17C29.3617 17 28.3015 17.244 27.2478 17.7213L27.6604 18.6322ZM30.4248 18C31.728 18 32.6685 18.3367 33.3169 18.9456L34.0014 18.2165C33.1147 17.384 31.899 17 30.4248 17V18ZM33.3151 18.9439C33.6033 19.2172 33.8127 19.5278 33.949 19.8785L34.881 19.516C34.6893 19.023 34.3947 18.5895 34.0032 18.2182L33.3151 18.9439ZM33.9512 19.8841C34.0962 20.244 34.1699 20.6286 34.1699 21.042H35.1699C35.1699 20.5062 35.0737 19.9943 34.8788 19.5105L33.9512 19.8841ZM34.1699 21.042C34.1699 21.5511 34.0649 22.0629 33.8483 22.5805L34.7708 22.9664C35.0347 22.3356 35.1699 21.6931 35.1699 21.042H34.1699ZM33.8466 22.5845C33.6376 23.0968 33.3346 23.5546 32.9342 23.9603L33.6459 24.6628C34.1361 24.1661 34.5128 23.5985 34.7725 22.9624L33.8466 22.5845ZM32.9321 23.9624C32.5114 24.3936 32.0069 24.7383 31.4129 24.9952L31.8098 25.913C32.5166 25.6074 33.1312 25.1903 33.6479 24.6607L32.9321 23.9624ZM31.4149 24.9943C30.839 25.2403 30.1949 25.3672 29.4756 25.3672V26.3672C30.3148 26.3672 31.0946 26.2186 31.8078 25.9139L31.4149 24.9943ZM29.4756 25.3672H29.3789V26.3672H29.4756V25.3672ZM28.89 25.7625L27.7913 30.8953L28.7692 31.1047L29.8678 25.9718L28.89 25.7625ZM28.2803 30.5H25.6963V31.5H28.2803V30.5ZM26.1853 31.1043L28.6286 19.6522L27.6507 19.4435L25.2073 30.8957L26.1853 31.1043Z" fill="#813434"/>
<path d="M20.8594 35.2188L21.0698 34.7651L21.0643 34.7627L20.8594 35.2188ZM19.5498 34.4365L19.8433 34.0317L19.8362 34.0266L19.5498 34.4365ZM18.2754 33.4521L18.5986 33.0706L18.5944 33.0671L18.2754 33.4521ZM15.5596 31.7119L15.366 32.173L15.3682 32.1738L15.5596 31.7119ZM13.6172 31.4307L13.1284 31.3256L12.9825 32.0043L13.6724 31.9276L13.6172 31.4307ZM16.2979 18.959L16.7867 19.0641L16.9867 18.1335L16.107 18.4969L16.2979 18.959ZM14.4346 20.4531L14.8517 20.7288L14.8529 20.727L14.4346 20.4531ZM13.9072 23.7842L14.3851 23.6371L14.3823 23.628L14.3792 23.619L13.9072 23.7842ZM13.9951 23.9863L14.4293 23.7382L14.4239 23.7291L13.9951 23.9863ZM14.0303 24.1094V24.6094H14.5303V24.1094H14.0303ZM12.6064 23.7139L12.9373 23.3388L12.9285 23.3314L12.6064 23.7139ZM12.3604 21.2002L12.817 21.4039L12.8181 21.4013L12.3604 21.2002ZM13.0811 20.084L13.4585 20.4119L13.4593 20.411L13.0811 20.084ZM14.1357 19.126L14.4291 19.5309L14.4302 19.5301L14.1357 19.126ZM15.4541 18.3525L15.2478 17.8971L15.2442 17.8987L15.4541 18.3525ZM19.1455 17.7197L19.6344 17.8245L19.7503 17.2838L19.2007 17.2228L19.1455 17.7197ZM16.377 30.6396L15.8881 30.5349L15.7843 31.019L16.2674 31.1275L16.377 30.6396ZM17.2471 30.9297L17.0457 31.3874L17.049 31.3888L17.2471 30.9297ZM18.2666 31.4307L18.0296 31.8709L18.0305 31.8714L18.2666 31.4307ZM19.251 31.958L19.4906 31.5192L19.4871 31.5173L19.251 31.958ZM21.3164 32.8193L21.4452 32.3362L21.4409 32.3351L21.3164 32.8193ZM23.9355 32.6699L24.432 32.7295L24.5342 31.878L23.7428 32.2086L23.9355 32.6699ZM23.2939 34.7354L22.8742 34.4637L22.8734 34.465L23.2939 34.7354ZM22.7402 35.2979L22.4795 34.8712L22.4725 34.8755L22.4656 34.88L22.7402 35.2979ZM22.0635 35C21.7459 35 21.416 34.9257 21.0697 34.7652L20.649 35.6723C21.1114 35.8868 21.5842 36 22.0635 36V35ZM21.0643 34.7627C20.699 34.5985 20.2923 34.3572 19.8433 34.0317L19.2563 34.8413C19.7449 35.1955 20.2112 35.4757 20.6545 35.6748L21.0643 34.7627ZM19.8362 34.0266C19.4219 33.7372 19.0093 33.4186 18.5986 33.0707L17.9522 33.8336C18.3852 34.2005 18.8223 34.5382 19.2635 34.8464L19.8362 34.0266ZM18.5944 33.0671C17.5813 32.2279 16.633 31.6154 15.7509 31.25L15.3682 32.1738C16.1268 32.4881 16.989 33.0358 17.9564 33.8372L18.5944 33.0671ZM15.7531 31.2509C15.2137 31.0245 14.6377 30.9131 14.0303 30.9131V31.9131C14.5127 31.9131 14.9563 32.0009 15.3661 32.1729L15.7531 31.2509ZM14.0303 30.9131H13.8281V31.9131H14.0303V30.9131ZM13.8281 30.9131C13.7606 30.9131 13.6627 30.9225 13.562 30.9337L13.6724 31.9276C13.7226 31.922 13.7616 31.9182 13.7905 31.9158C13.8227 31.9131 13.8321 31.9131 13.8281 31.9131V30.9131ZM14.106 31.5357L16.7867 19.0641L15.809 18.8539L13.1284 31.3256L14.106 31.5357ZM16.107 18.4969C15.2156 18.865 14.5108 19.4241 14.0163 20.1792L14.8529 20.727C15.2256 20.1579 15.7629 19.7209 16.4887 19.4211L16.107 18.4969ZM14.0174 20.1775C13.5189 20.9321 13.2842 21.8419 13.2842 22.8789H14.2842C14.2842 21.9941 14.4831 21.2867 14.8517 20.7288L14.0174 20.1775ZM13.2842 22.8789C13.2842 23.2796 13.328 23.6428 13.4353 23.9494L14.3792 23.619C14.3224 23.4569 14.2842 23.2165 14.2842 22.8789H13.2842ZM13.4293 23.9312C13.4627 24.0398 13.5073 24.1452 13.5664 24.2436L14.4239 23.7291C14.4126 23.7103 14.3986 23.6809 14.3851 23.6371L13.4293 23.9312ZM13.561 24.2344C13.5479 24.2115 13.5303 24.1678 13.5303 24.1094H14.5303C14.5303 23.9689 14.4892 23.8432 14.4292 23.7383L13.561 24.2344ZM14.0303 23.6094C13.4295 23.6094 13.1022 23.4845 12.9373 23.3389L12.2756 24.0888C12.7083 24.4706 13.3302 24.6094 14.0303 24.6094V23.6094ZM12.9285 23.3314C12.7489 23.1801 12.6055 22.8986 12.6055 22.3604H11.6055C11.6055 23.0643 11.7961 23.6851 12.2844 24.0963L12.9285 23.3314ZM12.6055 22.3604C12.6055 22.0423 12.6738 21.7247 12.817 21.4039L11.9037 20.9965C11.707 21.4374 11.6055 21.8933 11.6055 22.3604H12.6055ZM12.8181 21.4013C12.9655 21.0659 13.177 20.7359 13.4585 20.4119L12.7036 19.756C12.364 20.1469 12.095 20.5611 11.9026 20.9991L12.8181 21.4013ZM13.4593 20.411C13.7307 20.097 14.0532 19.8033 14.4291 19.5309L13.8424 18.7211C13.4097 19.0346 13.029 19.3796 12.7028 19.757L13.4593 20.411ZM14.4302 19.5301C14.8134 19.2509 15.2245 19.0096 15.664 18.8064L15.2442 17.8987C14.7463 18.129 14.2784 18.4034 13.8413 18.7219L14.4302 19.5301ZM15.6604 18.808C16.5989 18.3829 17.5191 18.1758 18.4248 18.1758V17.1758C17.3617 17.1758 16.3015 17.4198 15.2478 17.8971L15.6604 18.808ZM18.4248 18.1758C18.6196 18.1758 18.8411 18.189 19.0903 18.2167L19.2007 17.2228C18.9226 17.1919 18.6636 17.1758 18.4248 17.1758V18.1758ZM18.6566 17.615L15.8881 30.5349L16.8659 30.7444L19.6344 17.8245L18.6566 17.615ZM16.2674 31.1275C16.5204 31.1843 16.7797 31.2703 17.0457 31.3873L17.4484 30.472C17.1285 30.3312 16.8077 30.2239 16.4865 30.1518L16.2674 31.1275ZM17.049 31.3888C17.3311 31.5105 17.6576 31.6706 18.0296 31.8709L18.5037 30.9904C18.1139 30.7806 17.7607 30.6067 17.4451 30.4706L17.049 31.3888ZM18.0305 31.8714L19.0149 32.3987L19.4871 31.5173L18.5027 30.9899L18.0305 31.8714ZM19.0113 32.3968C19.7971 32.826 20.5249 33.1321 21.1919 33.3036L21.4409 32.3351C20.8774 32.1902 20.2283 31.922 19.4906 31.5192L19.0113 32.3968ZM21.1876 33.3025C21.5837 33.4081 21.9963 33.46 22.4238 33.46V32.46C22.0779 32.46 21.7522 32.4181 21.4452 32.3362L21.1876 33.3025ZM22.4238 33.46C23.0292 33.46 23.5992 33.3523 24.1283 33.1313L23.7428 32.2086C23.3461 32.3743 22.9083 32.46 22.4238 32.46V33.46ZM23.4391 32.6103C23.3386 33.4477 23.1398 34.0532 22.8742 34.4637L23.7137 35.007C24.0927 34.4214 24.3215 33.6499 24.432 32.7295L23.4391 32.6103ZM22.8734 34.465C22.7485 34.6591 22.6153 34.7882 22.4795 34.8712L23.001 35.7245C23.2871 35.5496 23.5229 35.3038 23.7145 35.0057L22.8734 34.465ZM22.4656 34.88C22.3424 34.961 22.2123 35 22.0635 35V36C22.4069 36 22.7279 35.9042 23.0148 35.7157L22.4656 34.88Z" fill="#813434"/>
</svg>
