<svg width="36" height="36" viewBox="0 0 36 36" fill="none" xmlns="http://www.w3.org/2000/svg">
<path d="M23.9991 25.5913L27.1007 22.4897C27.5159 22.0744 28.0438 21.7901 28.619 21.6719C29.1942 21.5538 29.7915 21.607 30.3367 21.825L34.1141 23.3371C34.6708 23.5598 35.1481 23.9443 35.4842 24.4409C35.8204 24.9374 36 25.5233 36 26.123V32.9923C36.001 33.4006 35.9186 33.8048 35.7579 34.1801C35.5973 34.5555 35.3617 34.8941 35.0657 35.1752C34.7696 35.4564 34.4193 35.6741 34.0361 35.8152C33.653 35.9563 33.2451 36.0177 32.8374 35.9956C6.35983 34.3479 1.01225 11.9219 0.0194437 3.33427C-0.0286407 2.91444 0.0127042 2.48918 0.14076 2.08647C0.268815 1.68376 0.480679 1.31272 0.762416 0.997765C1.04415 0.682807 1.38938 0.431065 1.77539 0.259097C2.16139 0.0871283 2.57943 -0.00116925 3.00201 1.16913e-05H9.74949C10.3491 -7.56385e-06 10.9351 0.179646 11.4316 0.515797C11.9282 0.851948 12.3127 1.32918 12.5354 1.88592L14.0461 5.66327C14.2641 6.20851 14.3174 6.80574 14.1992 7.38094C14.0811 7.95615 13.7967 8.48405 13.3815 8.89922L10.2798 12.0009C10.2798 12.0009 11.9996 24.0917 23.9991 25.5913Z" fill="#CF6200"/>
</svg>
