<svg width="29" height="50" viewBox="0 0 29 50" fill="none" xmlns="http://www.w3.org/2000/svg">
<path d="M5.04434 0H23.7978C25.1853 0 26.4474 0.569661 27.3616 1.48926C28.2758 2.40885 28.8421 3.67839 28.8421 5.07406V44.9259C28.8421 46.3216 28.2758 47.5911 27.3616 48.5107C26.4474 49.4303 25.1853 50 23.7978 50H5.04434C3.65684 50 2.39474 49.4303 1.48053 48.5107C0.566325 47.5911 0 46.3216 0 44.9259V5.07406C0 3.67839 0.566325 2.40885 1.48053 1.48926C2.39474 0.569661 3.65684 0 5.04434 0ZM11.7027 45.9798C11.3669 45.9798 11.0959 45.7072 11.0959 45.3695C11.0959 45.0317 11.3669 44.7591 11.7027 44.7591H17.2527C17.5884 44.7591 17.8595 45.0317 17.8595 45.3695C17.8595 45.7072 17.5884 45.9798 17.2527 45.9798H11.7027ZM11.1849 2.91341C11.7148 2.91341 12.1477 3.3488 12.1477 3.88184C12.1477 4.41488 11.7148 4.85026 11.1849 4.85026C10.655 4.85026 10.2222 4.41488 10.2222 3.88184C10.2222 3.3488 10.655 2.91341 11.1849 2.91341ZM14.4211 2.91341C14.951 2.91341 15.3838 3.3488 15.3838 3.88184C15.3838 4.41488 14.951 4.85026 14.4211 4.85026C13.8871 4.85026 13.4583 4.41488 13.4583 3.88184C13.4583 3.3488 13.8911 2.91341 14.4211 2.91341ZM17.6572 2.91341C18.1871 2.91341 18.6199 3.3488 18.6199 3.88184C18.6199 4.41488 18.1871 4.85026 17.6572 4.85026C17.1232 4.85026 16.6944 4.41488 16.6944 3.88184C16.6944 3.3488 17.1273 2.91341 17.6572 2.91341ZM1.21355 40.4012H27.6326V7.81657H1.21355V40.4012ZM27.6326 41.6219H1.21355V44.9259C1.21355 45.9839 1.64639 46.9482 2.33811 47.6481C3.03388 48.348 3.99259 48.7793 5.04434 48.7793H23.7978C24.8495 48.7793 25.8082 48.3439 26.504 47.6481C27.1998 46.9482 27.6286 45.9839 27.6286 44.9259V41.6219H27.6326ZM1.21355 6.59587H27.6326V5.07406C27.6326 4.01611 27.1998 3.05176 26.508 2.35189C25.8123 1.65202 24.8536 1.2207 23.7978 1.2207H5.04434C3.99259 1.2207 3.03388 1.65202 2.33811 2.35189C1.64234 3.05176 1.21355 4.01611 1.21355 5.07406V6.59587Z" fill="black"/>
</svg>
