<?xml version="1.0" standalone="no"?>
<!DOCTYPE svg PUBLIC "-//W3C//DTD SVG 20010904//EN"
 "http://www.w3.org/TR/2001/REC-SVG-20010904/DTD/svg10.dtd">
<svg version="1.0" xmlns="http://www.w3.org/2000/svg"
 width="297.000000pt" height="297.000000pt" viewBox="0 0 297.000000 297.000000"
 preserveAspectRatio="xMidYMid meet">

<g transform="translate(0.000000,297.000000) scale(0.100000,-0.100000)"
fill="#000000" stroke="none">
<path d="M1615 2949 c-15 -12 -42 -54 -60 -93 -45 -98 -70 -119 -149 -124 -72
-5 -69 -7 -158 128 -61 92 -70 94 -229 41 -163 -54 -161 -52 -157 -198 4 -130
-6 -152 -78 -177 -69 -23 -90 -20 -177 25 -105 55 -124 51 -203 -38 -150 -170
-148 -163 -69 -284 64 -98 68 -128 26 -185 -44 -62 -66 -71 -168 -75 -127 -5
-132 -10 -168 -185 -27 -135 -27 -136 -8 -162 10 -15 52 -43 93 -63 104 -51
123 -74 128 -153 5 -72 7 -69 -128 -158 -92 -61 -94 -70 -41 -229 54 -163 52
-161 198 -157 130 4 152 -6 177 -78 23 -69 20 -90 -25 -177 -55 -105 -51 -124
38 -203 170 -150 163 -148 284 -69 98 64 128 68 185 26 62 -44 71 -66 75 -168
5 -127 10 -132 185 -168 135 -27 136 -27 162 -8 15 10 43 51 62 91 52 105 75
125 153 130 73 5 70 7 159 -128 61 -92 70 -94 229 -41 163 54 163 54 157 190
-6 120 4 150 57 175 73 35 106 33 196 -14 107 -56 126 -52 205 37 150 170 148
163 69 284 -64 98 -68 128 -26 185 44 62 66 71 168 75 127 5 132 10 168 185
27 135 27 136 8 162 -10 15 -51 43 -91 62 -105 52 -125 75 -130 153 -5 73 -7
70 128 159 92 61 94 70 41 229 -54 163 -52 161 -198 157 -130 -4 -152 6 -177
78 -23 69 -20 90 25 177 55 105 51 124 -38 203 -170 150 -163 148 -284 69 -98
-64 -128 -68 -185 -26 -62 44 -71 66 -75 169 -5 125 -13 131 -180 166 -69 14
-131 26 -136 26 -6 0 -23 -10 -38 -21z m140 -493 c179 -53 315 -133 441 -260
126 -126 205 -260 261 -441 25 -84 27 -102 27 -270 0 -168 -2 -186 -27 -270
-56 -181 -135 -315 -261 -441 -126 -126 -260 -205 -441 -261 -84 -25 -102 -27
-270 -27 -168 0 -186 2 -270 27 -350 107 -597 354 -702 702 -25 84 -27 103
-27 270 0 168 2 186 27 270 116 378 391 633 778 720 45 10 109 14 219 11 133
-3 168 -7 245 -30z"/>
<path d="M1371 2360 c-374 -52 -671 -331 -752 -705 -16 -77 -16 -263 0 -340
77 -353 343 -619 696 -696 77 -16 263 -16 340 0 353 77 619 343 696 696 7 33
13 110 13 170 0 61 -6 137 -13 170 -75 346 -334 612 -674 690 -82 19 -227 26
-306 15z m269 -275 c106 -28 199 -83 280 -164 125 -126 180 -259 180 -435 0
-180 -54 -312 -179 -436 -126 -125 -259 -180 -435 -180 -56 0 -125 7 -156 15
-215 57 -390 234 -445 450 -19 75 -19 233 0 305 56 212 233 388 445 444 72 19
240 20 310 1z"/>
</g>
</svg>
