<?xml version="1.0" standalone="no"?>
<!DOCTYPE svg PUBLIC "-//W3C//DTD SVG 20010904//EN"
 "http://www.w3.org/TR/2001/REC-SVG-20010904/DTD/svg10.dtd">
<svg version="1.0" xmlns="http://www.w3.org/2000/svg"
 width="230.000000pt" height="264.000000pt" viewBox="0 0 230.000000 264.000000"
 preserveAspectRatio="xMidYMid meet">

<g transform="translate(0.000000,264.000000) scale(0.100000,-0.100000)"
fill="#000000" stroke="none">
<path d="M148 1413 l-3 -1218 -67 -3 -68 -3 0 -89 0 -90 785 0 785 0 0 90 0
90 -70 0 -70 0 0 570 c0 449 3 570 13 570 20 0 111 -73 124 -100 9 -19 13
-116 13 -376 0 -412 5 -443 86 -533 169 -188 471 -123 550 118 16 51 16 77 0
500 -9 245 -19 481 -22 524 l-6 77 46 0 47 0 -6 38 c-45 266 -184 473 -406
605 -65 38 -197 93 -250 104 l-29 6 0 -65 0 -64 84 -43 c186 -94 307 -244 351
-434 19 -82 33 -325 45 -795 10 -369 9 -385 -9 -427 -42 -95 -166 -131 -244
-72 -74 57 -71 38 -77 462 -5 379 -5 380 -30 430 -43 88 -144 169 -241 195
l-39 11 0 569 0 570 -645 0 -645 0 -2 -1217z m1112 652 l0 -365 -465 0 -465 0
0 365 0 365 465 0 465 0 0 -365z"/>
</g>
</svg>
