<svg width="32" height="32" viewBox="0 0 32 32" fill="none" xmlns="http://www.w3.org/2000/svg">
<path d="M9.15199 23.1397L11.9696 22.327L28.9344 5.15997C29.0682 5.02285 29.1427 4.8386 29.1418 4.64702C29.1409 4.45543 29.0646 4.27189 28.9296 4.13603L27.9136 3.10889C27.8479 3.04143 27.7695 2.98773 27.6828 2.95091C27.5962 2.91409 27.5031 2.8949 27.409 2.89446C27.3148 2.89401 27.2216 2.91232 27.1346 2.94831C27.0476 2.9843 26.9686 3.03726 26.9024 3.10409L9.98238 20.2263L9.15039 23.1381L9.15199 23.1397ZM29.9248 1.07381L30.9408 2.10255C32.3424 3.52167 32.3551 5.81113 30.9664 7.21585L13.4848 24.9076L7.46239 26.6419C7.0947 26.7448 6.70121 26.6977 6.36825 26.5108C6.03529 26.3239 5.79007 26.0126 5.68639 25.6452C5.60924 25.381 5.60813 25.1004 5.68319 24.8356L7.43519 18.692L24.8704 1.04661C25.2019 0.712804 25.5966 0.448346 26.0314 0.268661C26.4662 0.0889766 26.9324 -0.00233732 27.4029 4.54578e-05C27.8734 0.00242824 28.3387 0.0984598 28.7717 0.282539C29.2046 0.466619 29.5966 0.735062 29.9248 1.07221V1.07381ZM11.4944 2.9185C12.288 2.9185 12.9312 3.56966 12.9312 4.37282C12.9324 4.56267 12.8963 4.75092 12.8247 4.92679C12.7532 5.10266 12.6477 5.2627 12.5142 5.39777C12.3808 5.53284 12.222 5.64028 12.047 5.71395C11.8721 5.78762 11.6843 5.82609 11.4944 5.82713H5.74719C4.15999 5.82713 2.8736 7.12946 2.8736 8.73416V26.1827C2.8736 27.789 4.15999 29.0914 5.74719 29.0914H22.9888C24.576 29.0914 25.864 27.789 25.864 26.1827V20.3671C25.864 19.5639 26.5072 18.9128 27.3008 18.9128C28.0944 18.9128 28.7376 19.5639 28.7376 20.3687V26.1827C28.7376 29.3954 26.1632 32 22.9888 32H5.74719C2.5728 32 0 29.3954 0 26.1827V8.73416C0 5.52315 2.5728 2.9185 5.74719 2.9185H11.4944Z" fill="white"/>
</svg>
