<svg width="32" height="33" viewBox="0 0 32 33" fill="none" xmlns="http://www.w3.org/2000/svg">
<path d="M21.1966 20.1932C20.9648 20.1265 19.499 19.5456 20.4149 17.097H20.4018C22.7894 14.9346 24.6141 11.4549 24.6141 8.02906C24.6141 2.76144 20.6309 0 16.0014 0C11.3692 0 7.40784 2.76015 7.40784 8.02906C7.40784 11.469 9.22224 14.9628 11.6244 17.1201C12.5608 19.2801 10.8864 20.0817 10.5364 20.1945C5.68824 21.7363 0 24.5464 0 27.3207V28.3609C0 32.1407 8.334 33 16.0467 33C23.771 33 32 32.1407 32 28.3609V27.3207C32 24.4631 26.284 21.6746 21.1966 20.1932Z" fill="white"/>
</svg>
