<svg width="32" height="32" viewBox="0 0 32 32" fill="none" xmlns="http://www.w3.org/2000/svg">
<path fill-rule="evenodd" clip-rule="evenodd" d="M31.3377 14.1317L29.1778 11.4514C28.8311 11.0064 28.6169 10.4726 28.5598 9.91128L28.1798 6.51494C28.1028 5.83627 27.7981 5.20374 27.3153 4.72058C26.8326 4.23743 26.2004 3.93219 25.5218 3.85467L22.1239 3.47463C21.5239 3.41462 21.0039 3.1566 20.5639 2.81656L17.888 0.658347C17.3548 0.232161 16.6925 0 16.01 0C15.3275 0 14.6652 0.232161 14.132 0.658347L11.4521 2.81856C11.0073 3.16601 10.4735 3.38093 9.91211 3.43863L6.51617 3.81866C5.11619 3.97868 4.01621 5.07879 3.85621 6.47693L3.47622 9.87527C3.41622 10.4753 3.15823 10.9954 2.81823 11.4354L0.658269 14.1097C0.232133 14.6429 0 15.3053 0 15.9879C0 16.6705 0.232133 17.3328 0.658269 17.8661L2.81823 20.5463C3.15823 20.9864 3.37822 21.5064 3.43822 22.0865L3.81821 25.4828C3.97821 26.883 5.07819 27.9831 6.47617 28.1431L9.87411 28.5231C10.4741 28.5832 10.9941 28.8412 11.4341 29.1812L14.112 31.3414C15.212 32.2195 16.77 32.2195 17.868 31.3414L20.5479 29.1812C20.9879 28.8412 21.5079 28.6212 22.0879 28.5612L25.4838 28.1811C26.8838 28.0211 27.9838 26.921 28.1438 25.5228L28.5238 22.1245C28.5838 21.5244 28.8418 21.0044 29.1818 20.5644L31.3417 17.8861C31.7679 17.3528 32 16.6905 32 16.0079C32 15.3253 31.7679 14.6629 31.3417 14.1297L31.3377 14.1317ZM12.9981 24.0207L5.99818 17.02L8.99812 14.0197L12.9981 18.0201L22.9979 8.01909L25.9978 11.1194L12.9981 24.0207Z" fill="white"/>
</svg>
