<svg width="51" height="51" viewBox="0 0 51 51" fill="none" xmlns="http://www.w3.org/2000/svg">
<path d="M41.7224 24.6596C38.8123 18.8981 33.0512 15 26.4545 15C19.8579 15 14.0952 18.9009 11.1867 24.6601C11.064 24.9065 11 25.1787 11 25.4548C11 25.7309 11.064 26.0031 11.1867 26.2495C14.0968 32.011 19.8579 35.9091 26.4545 35.9091C33.0512 35.9091 38.8139 32.0082 41.7224 26.249C41.8451 26.0026 41.9091 25.7304 41.9091 25.4543C41.9091 25.1782 41.8451 24.906 41.7224 24.6596V24.6596ZM26.4545 33.2955C24.9262 33.2955 23.4322 32.8356 22.1615 31.974C20.8907 31.1125 19.9003 29.8879 19.3155 28.4551C18.7306 27.0224 18.5776 25.4458 18.8757 23.9249C19.1739 22.4039 19.9098 21.0068 20.9905 19.9102C22.0712 18.8136 23.4481 18.0668 24.947 17.7643C26.446 17.4618 27.9997 17.617 29.4117 18.2105C30.8236 18.8039 32.0305 19.8089 32.8796 21.0984C33.7286 22.3878 34.1818 23.9038 34.1818 25.4545C34.1823 26.4844 33.9828 27.5042 33.5946 28.4557C33.2065 29.4073 32.6373 30.2718 31.9197 31C31.202 31.7282 30.35 32.3058 29.4122 32.6996C28.4745 33.0935 27.4694 33.296 26.4545 33.2955V33.2955ZM26.4545 20.2273C25.9947 20.2338 25.5379 20.3032 25.0964 20.4336C25.4603 20.9355 25.635 21.5531 25.5886 22.1744C25.5423 22.7957 25.2781 23.3796 24.8439 23.8202C24.4097 24.2608 23.8342 24.5289 23.2219 24.5759C22.6096 24.6229 22.001 24.4457 21.5064 24.0764C21.2248 25.1292 21.2756 26.2452 21.6518 27.2672C22.0279 28.2892 22.7104 29.1658 23.6033 29.7736C24.4961 30.3813 25.5543 30.6897 26.6289 30.6552C27.7035 30.6208 28.7404 30.2453 29.5937 29.5815C30.4469 28.9178 31.0736 27.9993 31.3854 26.9552C31.6973 25.9111 31.6786 24.7942 31.332 23.7614C30.9855 22.7287 30.3285 21.8323 29.4535 21.1983C28.5785 20.5643 27.5297 20.2247 26.4545 20.2273V20.2273Z" fill="white" fill-opacity="0.56"/>
</svg>
