<svg width="52" height="25" viewBox="0 0 52 25" fill="none" xmlns="http://www.w3.org/2000/svg">
<path d="M0 1.50794C0 1.09399 0.171109 0.739184 0.513327 0.443511C0.855545 0.147837 1.26621 0 1.74531 0C2.22442 0 2.63508 0.147837 2.9773 0.443511L26.1797 20.4902L49.0227 0.753968C49.3649 0.458294 49.7756 0.310457 50.2547 0.310457C50.7338 0.310457 51.1445 0.458294 51.4867 0.753968C51.8289 1.04964 52 1.40445 52 1.81839C52 2.23234 51.8289 2.58715 51.4867 2.88282L27.4116 23.6835C27.0694 23.9791 26.6588 24.127 26.1797 24.127C25.7006 24.127 25.2899 23.9791 24.9477 23.6835L0.513327 2.61671C0.444883 2.55758 0.384995 2.49105 0.333662 2.41713C0.28233 2.34321 0.239552 2.2693 0.205331 2.19538L0.102665 1.97362L0.0256663 1.75187L0 1.50794Z" fill="#D3D3D3" fill-opacity="0.9"/>
</svg>
