<svg width="76" height="74" viewBox="0 0 76 74" fill="none" xmlns="http://www.w3.org/2000/svg">
<path d="M38 0C16.625 0 0 16.7097 0 38.1936C0 63.2581 22.5625 74 26.125 74C28.5 74 28.5 72.8065 28.5 71.6129V65.6452C20.1875 68.0323 16.625 63.2581 15.4375 59.6774C15.4375 59.6774 15.4375 58.4839 13.0625 56.0968C11.875 54.9032 7.125 52.5161 11.875 52.5161C15.4375 52.5161 17.8125 57.2903 17.8125 57.2903C21.375 62.0645 26.125 60.871 28.5 59.6774C28.5 57.2903 30.875 54.9032 30.875 54.9032C21.375 53.7097 14.25 50.129 14.25 37C14.25 32.2258 15.4375 28.6452 17.8125 26.2581C17.8125 26.2581 15.4375 21.4839 17.8125 15.5161C17.8125 15.5161 23.75 15.5161 28.5 20.2903C32.0625 17.9032 43.9375 17.9032 47.5 20.2903C52.25 15.5161 58.1875 15.5161 58.1875 15.5161C60.5625 23.871 58.1875 26.2581 58.1875 26.2581C60.5625 28.6452 61.75 32.2258 61.75 37C61.75 50.129 53.4375 53.7097 45.125 54.9032C46.3125 56.0968 47.5 58.4839 47.5 62.0645V71.6129C47.5 72.8065 47.5 74 49.875 74C53.4375 74 76 63.2581 76 38.1936C76 16.7097 59.375 0 38 0Z" fill="white"/>
</svg>
