<svg width="74" height="74" viewBox="0 0 74 74" fill="none" xmlns="http://www.w3.org/2000/svg">
<path d="M37 0C16.5652 0 0 16.5652 0 37C0 57.4348 16.5652 74 37 74C57.4348 74 74 57.4348 74 37C74 16.5652 57.4348 0 37 0ZM27.9427 52.3357H20.4502V28.2241H27.9427V52.3357ZM24.1502 25.2641C21.7837 25.2641 20.2536 23.5875 20.2536 21.514C20.2536 19.398 21.83 17.7716 24.2466 17.7716C26.6631 17.7716 28.1431 19.398 28.1894 21.514C28.1894 23.5875 26.6631 25.2641 24.1502 25.2641ZM55.3073 52.3357H47.8148V38.9733C47.8148 35.863 46.7279 33.7509 44.0184 33.7509C41.9487 33.7509 40.7193 35.1808 40.1758 36.5568C39.9754 37.0462 39.9253 37.74 39.9253 38.4299V52.3319H32.429V35.9131C32.429 32.903 32.3326 30.3862 32.2324 28.2202H38.7421L39.0851 31.5695H39.2354C40.2221 29.997 42.6386 27.6768 46.6817 27.6768C51.6111 27.6768 55.3073 30.9798 55.3073 38.0792V52.3357Z" fill="white"/>
</svg>
