<svg width="76" height="76" viewBox="0 0 76 76" fill="none" xmlns="http://www.w3.org/2000/svg">
<path d="M38 0C17.0152 0 0 17.0152 0 38C0 58.9848 17.0152 76 38 76C58.9848 76 76 58.9848 76 38C76 17.0152 58.9848 0 38 0ZM56.2621 28.6442C56.2875 29.0429 56.2875 29.4585 56.2875 29.8656C56.2875 42.3174 46.8045 56.6607 29.4754 56.6607C24.1317 56.6607 19.1781 55.1085 15.0049 52.4366C15.7683 52.5214 16.4978 52.5554 17.2781 52.5554C21.6888 52.5554 25.7433 51.0625 28.975 48.5348C24.8357 48.45 21.358 45.7357 20.1705 42.0036C21.621 42.2156 22.9272 42.2156 24.4201 41.8339C22.2887 41.4009 20.373 40.2434 18.9984 38.558C17.6238 36.8726 16.8751 34.7633 16.8795 32.5884V32.4696C18.1263 33.1737 19.5938 33.6062 21.129 33.6656C19.8384 32.8055 18.78 31.6402 18.0476 30.273C17.3151 28.9059 16.9314 27.3791 16.9304 25.8281C16.9304 24.0723 17.3884 22.4692 18.2112 21.0781C20.5769 23.9904 23.5289 26.3722 26.8754 28.0688C30.2219 29.7654 33.8879 30.7389 37.6353 30.9259C36.3036 24.5219 41.0875 19.3393 46.8384 19.3393C49.5527 19.3393 51.9955 20.4759 53.7174 22.308C55.8464 21.9094 57.8821 21.1121 59.6973 20.0433C58.9933 22.2232 57.5174 24.0638 55.558 25.2259C57.458 25.0223 59.2902 24.4964 60.9866 23.7585C59.7058 25.6415 58.1027 27.3125 56.2621 28.6442Z" fill="white"/>
</svg>
